<svg xmlns="http://www.w3.org/2000/svg" viewBox="0 0 248.9 71.8"><path d="M248.9 43.9h-27.6c4.5-6.4 9.2-11.3 13.6-16.4 2.9-3 5.4-6.3 7.6-9.9 2.4-4.3 1.7-7.9-1.8-10.7-3.2-2.9-8.2-2.6-11.1.6-.8.9-1.4 2-1.7 3.2-.3 1-.3 2-1.1 2.7-1.4.7-2.8.3-4.3.2.4-7.1 4.1-12 9.7-12.8 6.3-.9 12.7 0 15.9 7.9.2.4.5.8.9 1.2v7c-4.3 8.1-11.4 14.2-17 22h17l-.1 5z" fill="#a9d044"/><path d="M172.1 26.1h-20.8c-1.6-1.6-1-2.9-.8-4.6h26.8c2.6 9.2-2.5 18.5-12.2 21.8-11.6 3.9-24.2-2.4-28.1-14-3.9-11.6 2.5-24.6 14.2-27.9 8.5-2.4 18.5-1.4 24.8 8-.4 1.6-1.7 2.3-2.8 3.2-1.1.1-1.5-.7-2-1.3-4.8-5.6-10.7-7.6-17.9-5.4-9 2.7-14.1 12.7-11.3 22 2.6 8.6 12.5 13.8 21.1 11 5.7-1.9 8.8-6.1 9-12.8zM38.4 1c4.1-.4 8.3-.3 12.4.3 5.8 1.1 8.9 4.7 9.4 10.1.6 5.9-1.7 10-7 12.5-.7.4-1.5.6-2.9 1.2L63 43.3c-2.1.7-3.9.4-5.9.4L44.6 25.9l-.9.2V43c-1.7.9-3.6.9-5.4.2L38.4 1zm5.3 19.5c4.9.3 8.8-.2 11-4.4.9-8.6-3.1-12-11-9.6v14zm-24.9.1c.4.3.8.7 1.2 1 4.9 2.7 6.6 7 5.7 12.2s-4.5 8.4-9.7 9.5c-4.9 1-9.8.5-15 .4V1.2c4-.7 8.1-.6 12.1.2 9.4 1.8 10.4 11.5 7.5 16.7-.5.8-1.1 1.7-1.8 2.5zM6.1 24.1v14.8h7.1c.8-.1 1.6-.3 2.4-.6 3.5-1.2 5.3-3.5 5.2-6.9-.1-3.2-1.8-5.4-5.1-6.5-3.1-1-6.4-1.3-9.6-.8zM6 19.5c4.3.3 8 .5 10.2-3.4 1.4-2.3 1.3-5.3-.3-7.5-2.5-3.4-6.2-3-9.9-2.5v13.4zm88.2 24.1V1c6.3-.1 12.5-.7 18.6 1.5 8.6 3.2 13.4 11.1 13.1 21.4-.4 8.8-6.3 16.3-14.7 18.8-5.5 1.5-11.1 1.2-17 .9zm5.1-4.9c8.2.7 15.2-.6 19.4-8 3.4-5.6 3.1-12.6-.7-17.9-4.4-6.6-11.1-7.7-18.7-6.8v32.7zm96.8.2h16.3c.7 1.4.8 3.2.1 4.6H191V1.2h21.4c.9 1.1.5 2.6.2 4.3-5.4.8-10.8 0-16.6.5-.3 3.9-.4 7.8-.2 11.8h15.8c1.3 1.7 1 3.1.4 5h-15.9v16.1zM79.2 43.4c-1.5.5-3.1.5-4.7.1V1.4c1.4-.9 2.9-.5 4.7-.3v42.3zM50.4 63.3l2.5-6.8c1-.7 2.3-.8 3.3-.2 1.5 2.2 1.3 5.1 3.3 7.7l2-7.4c1.1-.9 2.6-.8 3.6.2l-3.9 13.6c-1 .8-2.3 1-3.4.5-1-2.8-2-5.5-3.2-9l-2.9 8.7c-1.1.8-2 .7-3.4.1-1.4-4.4-2.8-9.1-4.2-13.8.9-1.3 2.1-.8 3.2-.8 1.9 1.7 1 4.7 3.1 7.2zm95.4-7.3l6.1 9.4v-8.8c1.3-1 2.3-.7 3.5-.3v14.1c-1.4 1.2-2.9.5-4.4.6-1.8-2.8-3.5-5.6-5.8-9.2-.2 3.5-.3 6.1-.4 8.4-1 1.2-2 .7-3.3.8V56.4c.9-1.1 2.4-.5 4.3-.4zm42.3 0c5.1-.1 9.9-1.1 12.9 3.7 1.6 2.4 1.5 5.6-.2 8-3.1 4.6-7.8 3.1-12.5 3.4-.6-5.1-.2-9.8-.2-15.1zm3.7 11.9c2.8-.1 4.8-.5 6-2.5.4-1.8.5-3.4-.9-4.8-1.4-.9-3-1.3-4.7-1.3-.9 2.6-.3 5.3-.4 8.6zm-181-3.1l3.2 5.5c-1.3 1.1-2.5.9-3.9.4l-3.5-5.9c-1.2 2-.4 3.9-1 5.4-1 1.3-2.1.7-3.4.5V55.9h6.6c2.2 0 4 .9 4.7 3 .7 1.7.3 3.8-1.2 5l-1.5.9zm-4.6-3.2c1 .6 2.2.5 3.1-.2.2-.1.3-.5.5-1-1-1.7-2.3-2-4-1 .1.8-.2 1.5.4 2.2zm103.7 8.7c-1.1 1.1-2.1.6-2.9.7-1.6-.5-1.4-2.5-2.9-3h-4.3c-1.3 1.5-1.9 4.3-5 2.4 1.3-4.9 4-9.3 5.5-13.7 1.2-1.2 2.2-.8 3.4-.8l6.2 14.4zm-7.7-8.1c-.8.2-1.3.9-1.2 1.8 0 .2.1.3.2.5.7.6 1.2.3 1.8-.1-.1-.9.1-1.8-.8-2.2zm136.3-5.9c1-.5 2.1-.6 3.2-.2l6.2 14.1c-1.1 1.1-2.2.8-3.5.5l-1.8-2.8h-4.8c-1.1 1.3-1.7 4.1-4.9 2.4 1-4.9 3.7-9.4 5.6-14zm1.6 5.9c-1.2.6-1.6 1.4-.5 2.6l1.4-.4c-.1-.9 0-1.7-.9-2.2z" fill="#646566"/></svg>