<svg version="1.1" id="Layer_1" xmlns="http://www.w3.org/2000/svg" x="0" y="0" viewBox="0 0 225 70" xml:space="preserve"><style>.st0{fill:#062172}</style><path class="st0" d="M71.241.912H51.715a.536.536 0 00-.536.536v67.104c0 .296.24.536.536.536h11.632c.296 0 .536-.24.536-.536V48.428h7.358c10.774 0 19.508-8.734 19.508-19.508v-8.5C90.749 9.646 82.015.912 71.241.912zm.302 34.812h-7.66V13.616h7.66a6.503 6.503 0 016.502 6.502v9.104a6.503 6.503 0 01-6.502 6.502zM132.29 13.08V1.448a.536.536 0 00-.536-.536H98.617a.536.536 0 00-.536.536v67.104c0 .296.24.536.536.536h33.137c.296 0 .536-.24.536-.536V56.92a.536.536 0 00-.536-.536h-20.97V13.616h20.97c.296 0 .536-.24.536-.536z"/><path d="M132.09 41.084l-21.307-21.308-21.307 21.308a.536.536 0 000 .758l8.225 8.225c.209.209.548.209.758 0l12.324-12.325 12.325 12.325c.209.209.548.209.758 0l8.224-8.225a.536.536 0 000-.758z" fill="#43d596"/><path class="st0" d="M43.311 33.363H22.46a.536.536 0 00-.536.536v11.698c0 .296.24.536.536.536h8.684v1.031a9.22 9.22 0 01-18.44 0V22.836a9.22 9.22 0 0118.427-.5c.014.275.257.5.533.5h11.64c.299 0 .544-.245.537-.544C43.552 10.435 33.85.912 21.924.912 9.816.912 0 10.728 0 22.836v24.328c0 12.108 9.816 21.924 21.924 21.924 12.108 0 21.924-9.816 21.924-21.924V33.899a.536.536 0 00-.537-.536zM147.864 24.096v7.876h-1.894v-7.876h-3.052v-1.785h7.998v1.785h-3.052zM154.802 27.067a2.724 2.724 0 00-.545-.055c-.927 0-1.73.45-1.73 1.894v3.066h-1.813v-6.704h1.758v.995c.409-.886 1.335-1.05 1.908-1.05.15 0 .286.014.422.028v1.826zM160.597 31.06c-.287.64-.982 1.103-1.88 1.103-1.977 0-3.285-1.54-3.285-3.57 0-1.962 1.281-3.516 3.23-3.516 1.199 0 1.757.64 1.921 1.022v-.831h1.758v5.491c0 .6.04 1.063.054 1.213h-1.73a5.437 5.437 0 01-.068-.831v-.082zm-1.663-.464c.94 0 1.649-.777 1.649-2.003s-.695-1.949-1.649-1.949c-.967 0-1.676.723-1.676 1.949 0 1.213.695 2.003 1.676 2.003zM165.856 31.972h-1.812v-6.704h1.758v.831c.408-.695 1.212-1.008 1.934-1.008 1.663 0 2.426 1.185 2.426 2.657v4.224h-1.812v-3.91c0-.75-.368-1.336-1.24-1.336-.79 0-1.254.613-1.254 1.39v3.856zM172.84 29.765c.042.531.437 1.022 1.227 1.022.6 0 .886-.314.886-.668 0-.3-.205-.545-.722-.654l-.886-.204c-1.295-.287-1.88-1.063-1.88-2.003 0-1.2 1.062-2.194 2.507-2.194 1.907 0 2.548 1.212 2.63 1.935l-1.513.34c-.055-.395-.34-.9-1.104-.9-.477 0-.858.287-.858.669 0 .327.245.531.613.6l.954.204c1.322.272 1.99 1.076 1.99 2.057 0 1.09-.846 2.207-2.603 2.207-2.017 0-2.712-1.308-2.794-2.07l1.554-.341zM180.276 24.532v.736h1.513v1.554h-1.513v5.15h-1.826v-5.15h-1.117v-1.554h1.117v-.763c0-1.512.954-2.493 2.44-2.493.38 0 .749.068.899.136v1.526a2.03 2.03 0 00-.573-.068c-.409 0-.94.177-.94.926zM189.313 28.62c0 2.058-1.512 3.556-3.515 3.556s-3.516-1.498-3.516-3.556c0-2.071 1.513-3.556 3.516-3.556s3.515 1.485 3.515 3.556zm-1.812 0c0-1.267-.817-1.908-1.703-1.908-.886 0-1.703.64-1.703 1.908 0 1.254.817 1.908 1.703 1.908.886 0 1.703-.64 1.703-1.908zM194.653 27.067a2.723 2.723 0 00-.545-.055c-.926 0-1.73.45-1.73 1.894v3.066h-1.812v-6.704h1.757v.995c.41-.886 1.336-1.05 1.908-1.05.15 0 .286.014.422.028v1.826zM195.612 31.972v-6.704h1.73v.818c.368-.654 1.227-1.009 1.963-1.009.912 0 1.648.396 1.989 1.118.531-.818 1.24-1.118 2.126-1.118 1.24 0 2.425.75 2.425 2.548v4.347h-1.758v-3.979c0-.722-.354-1.267-1.185-1.267-.777 0-1.24.6-1.24 1.322v3.924h-1.799v-3.979c0-.722-.368-1.267-1.185-1.267-.79 0-1.254.586-1.254 1.322v3.924h-1.812zM208.362 21.943c.627 0 1.118.505 1.118 1.131 0 .6-.491 1.104-1.118 1.104a1.12 1.12 0 01-1.117-1.104c0-.626.504-1.13 1.117-1.13zm-.899 10.029v-6.704h1.812v6.704h-1.812zM212.752 31.972h-1.813v-6.704h1.758v.831c.409-.695 1.213-1.008 1.935-1.008 1.662 0 2.425 1.185 2.425 2.657v4.224h-1.812v-3.91c0-.75-.368-1.336-1.24-1.336-.79 0-1.253.613-1.253 1.39v3.856zM219.863 31.904c.123.736.708 1.267 1.567 1.267 1.144 0 1.785-.572 1.785-1.867v-.49c-.273.436-.9.858-1.867.858-1.785 0-3.12-1.376-3.12-3.256 0-1.772 1.28-3.27 3.12-3.27 1.063 0 1.676.463 1.908.912v-.79H225v5.982c0 1.84-.995 3.515-3.516 3.515-1.84 0-3.065-1.144-3.256-2.425l1.635-.436zm3.38-3.488c0-1.036-.71-1.69-1.582-1.69-.899 0-1.607.654-1.607 1.69 0 1.049.667 1.703 1.607 1.703.927 0 1.581-.668 1.581-1.703z"/><g><path class="st0" d="M142.918 47.852v-9.66h6.05v1.77h-4.17v2.208h3.774v1.676h-3.774v2.235h4.17v1.771h-6.05zM156.876 46.64c0 .45.027.94.054 1.212h-1.73a4.627 4.627 0 01-.068-.776c-.3.531-.981.94-1.88.94-1.908 0-3.27-1.5-3.27-3.53 0-1.961 1.32-3.501 3.215-3.501 1.158 0 1.703.477 1.894.831v-3.829h1.785v8.653zm-3.407-.246c.927 0 1.65-.708 1.65-1.921 0-1.199-.723-1.867-1.65-1.867-.926 0-1.662.682-1.662 1.88 0 1.2.709 1.908 1.662 1.908zM162.89 47.13c-.368.627-1.144.9-1.853.9-1.621 0-2.548-1.186-2.548-2.644v-4.238h1.812v3.87c0 .75.382 1.349 1.227 1.349.804 0 1.267-.545 1.267-1.322v-3.897h1.812v5.492c0 .517.041.98.068 1.212h-1.73a4.608 4.608 0 01-.055-.722zM167.658 44.5c0 1.213.79 1.894 1.717 1.894.926 0 1.39-.613 1.54-1.13l1.594.53c-.3 1.118-1.35 2.263-3.134 2.263-1.976 0-3.53-1.5-3.53-3.557 0-2.07 1.527-3.556 3.475-3.556 1.826 0 2.862 1.13 3.148 2.262l-1.622.545c-.163-.559-.586-1.131-1.485-1.131-.926 0-1.703.668-1.703 1.88zM178.399 46.94c-.286.64-.981 1.103-1.88 1.103-1.976 0-3.284-1.54-3.284-3.57 0-1.962 1.28-3.515 3.23-3.515 1.198 0 1.757.64 1.92 1.022v-.832h1.758v5.492c0 .6.04 1.062.055 1.212h-1.731a5.437 5.437 0 01-.068-.83v-.083zm-1.662-.464c.94 0 1.648-.777 1.648-2.003s-.695-1.948-1.648-1.948c-.968 0-1.676.722-1.676 1.948 0 1.213.695 2.003 1.676 2.003zM184.108 41.148h1.35v1.608h-1.35v2.807c0 .586.273.777.79.777.218 0 .464-.027.56-.055v1.5c-.164.067-.491.163-1.023.163-1.308 0-2.125-.777-2.125-2.071v-3.12h-1.213v-1.609h.34c.71 0 1.036-.463 1.036-1.062v-.94h1.635v2.002zM187.616 37.824c.627 0 1.117.504 1.117 1.13 0 .6-.49 1.104-1.117 1.104a1.12 1.12 0 01-1.117-1.103c0-.627.504-1.131 1.117-1.131zm-.9 10.028v-6.704h1.813v6.704h-1.812zM196.772 44.5c0 2.058-1.513 3.557-3.516 3.557s-3.515-1.5-3.515-3.557c0-2.07 1.512-3.556 3.515-3.556s3.516 1.485 3.516 3.556zm-1.812 0c0-1.267-.818-1.907-1.704-1.907-.885 0-1.703.64-1.703 1.907 0 1.254.818 1.908 1.703 1.908.886 0 1.704-.64 1.704-1.908zM199.836 47.852h-1.812v-6.704h1.758v.832c.409-.695 1.213-1.009 1.935-1.009 1.662 0 2.425 1.186 2.425 2.657v4.224h-1.812v-3.91c0-.75-.368-1.336-1.24-1.336-.79 0-1.254.613-1.254 1.39v3.856z"/></g></svg>