<?xml version="1.0" encoding="UTF-8" standalone="no"?>
<!DOCTYPE svg PUBLIC "-//W3C//DTD SVG 1.1//EN" "http://www.w3.org/Graphics/SVG/1.1/DTD/svg11.dtd">
<svg height="110" width="350" viewBox="0 0 2305 725" version="1.1" xmlns="http://www.w3.org/2000/svg" xmlns:xlink="http://www.w3.org/1999/xlink" xml:space="preserve" xmlns:serif="http://www.serif.com/" style="fill-rule:evenodd;clip-rule:evenodd;stroke-linejoin:round;stroke-miterlimit:2;">
    <g transform="matrix(4.16667,0,0,4.16667,0,0)">
        <path d="M350.902,0.9C350.736,0.878 350.605,0.77 350.605,0.605C350.605,0.44 350.738,0.31 350.902,0.31L531.717,0.31L531.717,110.069C490.239,51.493 425.402,10.702 350.902,0.9Z" style="fill:rgb(243,108,33);fill-rule:nonzero;"/>
        <path d="M501.875,64.255C503.099,46.187 502.706,35.636 505.798,32.77C508.659,30.12 513.818,29.398 522.583,28.761C503.341,26.538 503.807,27.108 501.875,8.405C499.944,27.108 500.41,26.538 481.167,28.761C489.932,29.398 495.092,30.12 497.953,32.77C501.045,35.636 500.652,46.187 501.875,64.255Z" style="fill:white;fill-rule:nonzero;"/>
        <path d="M203.043,76.774L203.043,100.358C200.241,102.748 197.642,104.514 193.694,104.514C188.915,104.514 182.682,100.462 182.682,88.723C182.682,76.049 192.551,66.908 203.043,76.774ZM393.637,88.517C393.637,97.554 390.624,104.721 383.872,104.721C377.119,104.721 374.106,97.554 374.106,88.517C374.106,79.477 377.119,72.307 383.872,72.307C390.624,72.307 393.637,79.477 393.637,88.517ZM362.679,88.517C362.679,99.425 370.78,108.463 383.872,108.463C396.96,108.463 405.064,99.425 405.064,88.517C405.064,77.607 396.96,68.568 383.872,68.568C370.78,68.568 362.679,77.607 362.679,88.517ZM103.159,88.517C103.159,97.554 100.146,104.721 93.394,104.721C86.641,104.721 83.627,97.554 83.627,88.517C83.627,79.477 86.641,72.307 93.394,72.307C100.146,72.307 103.159,79.477 103.159,88.517ZM44.047,60.571L37.917,60.571L25.659,92.255L12.569,55.793L0,55.793L19.427,107.942L25.349,107.942L37.917,75.739L50.383,107.942L56.307,107.942L75.731,55.898L69.811,55.898L56.201,92.255L44.047,60.571ZM452.472,108.044L452.472,86.542C452.472,71.997 441.357,68.362 434.815,68.362C430.138,68.362 426.189,70.128 422.242,72.828L422.031,72.723L422.031,68.981L412.061,68.981L412.061,108.044L422.863,108.044L422.863,76.57C426.084,73.761 429.203,72.619 431.902,72.619C437.617,72.619 441.564,78.127 441.564,84.149L441.564,108.044L452.472,108.044ZM261.155,108.044L265.728,108.044L288.583,55.582L282.66,55.582L266.765,92.464L251.078,55.582L237.99,55.582L261.155,108.044ZM190.682,108.877C195.772,108.877 199.928,107.112 203.667,104.201L203.875,104.305L203.875,108.044L213.848,108.044L213.848,48.309L203.043,48.309L203.043,72.102C200.031,69.814 195.461,68.362 190.786,68.362C184.864,68.362 170.736,71.997 170.736,89.139C170.736,101.918 181.955,108.877 190.682,108.877ZM308.188,79.686C307.15,94.543 328.967,91.01 328.344,100.049C328.03,103.679 324.914,104.93 321.591,104.826C316.187,104.408 312.864,101.292 309.955,97.864L306.736,105.032C311.095,107.525 315.875,108.772 320.031,109.085C329.382,109.707 337.28,105.653 337.795,96.619C338.73,82.595 316.187,84.358 316.604,77.191C316.813,74.075 320.341,72.518 323.978,72.723C327.72,73.035 330.629,75.113 333.848,78.021L336.759,71.581C332.707,69.814 328.863,68.981 325.435,68.672C315.358,68.05 308.605,73.347 308.188,79.686ZM297.412,51.325C294.189,51.325 291.697,53.819 291.697,57.04C291.697,60.257 294.189,62.751 297.412,62.751C300.633,62.751 303.125,60.257 303.125,57.04C303.125,53.819 300.633,51.325 297.412,51.325ZM301.464,68.981L290.661,68.981L290.661,108.045L301.464,108.045L301.464,68.981ZM72.201,88.517C72.201,99.425 80.302,108.463 93.394,108.463C106.482,108.463 114.586,99.425 114.586,88.517C114.586,77.607 106.482,68.568 93.394,68.568C80.302,68.568 72.201,77.607 72.201,88.517ZM164.736,48.309L153.931,48.309L153.931,108.044L164.736,108.044L164.736,48.309ZM121.002,68.981L121.002,108.044L131.803,108.044L131.803,76.256C135.442,73.14 138.038,74.178 145.207,80.101L149.57,70.335C147.388,69.399 144.583,68.362 140.531,68.362C136.48,68.362 133.466,70.335 132.013,72.102L131.491,72.723L131.388,72.619L131.491,68.981L121.002,68.981Z" style="fill:rgb(34,30,31);fill-rule:nonzero;"/>
        <rect x="344.796" y="68.981" width="10.803" height="39.064" style="fill:rgb(34,30,31);fill-rule:nonzero;"/>
        <path d="M350.547,51.325C347.324,51.325 344.832,53.819 344.832,57.04C344.832,60.257 347.324,62.751 350.547,62.751C353.768,62.751 356.26,60.257 356.26,57.04C356.26,53.819 353.768,51.325 350.547,51.325Z" style="fill:rgb(34,30,31);fill-rule:nonzero;"/>
        <path d="M7.146,138.683L5.442,150.804L22.365,150.804L23.953,138.683L25.811,138.683L22.21,165.093L20.352,165.093L22.133,152.469L5.248,152.469L3.545,165.093L1.686,165.093L5.288,138.683L7.146,138.683Z" style="fill:rgb(3,4,4);fill-rule:nonzero;"/>
        <path d="M38.609,161.395C39.784,159.627 40.372,157.362 40.372,154.599C40.372,152.766 39.958,151.334 39.132,150.3C38.306,149.268 37.235,148.752 35.918,148.752C33.982,148.752 32.439,149.701 31.29,151.598C30.142,153.496 29.567,155.748 29.567,158.355C29.567,160.059 29.967,161.434 30.768,162.479C31.567,163.525 32.626,164.047 33.943,164.047C35.879,164.047 37.435,163.164 38.609,161.395ZM39.829,162.461C38.332,164.5 36.357,165.519 33.904,165.519C32.045,165.519 30.574,164.836 29.49,163.467C28.405,162.099 27.863,160.356 27.863,158.239C27.863,154.935 28.619,152.282 30.129,150.281C31.639,148.281 33.62,147.28 36.073,147.28C37.88,147.28 39.332,147.952 40.43,149.294C41.526,150.636 42.075,152.43 42.075,154.676C42.075,157.827 41.326,160.42 39.829,162.461Z" style="fill:rgb(3,4,4);fill-rule:nonzero;"/>
        <path d="M47.38,163.893C47.974,163.97 48.393,164.022 48.639,164.047C48.884,164.074 49.226,164.086 49.665,164.086C52.453,164.086 54.66,163.28 56.287,161.667C57.913,160.053 58.726,157.904 58.726,155.218C58.726,153.127 58.223,151.507 57.216,150.359C56.209,149.211 54.918,148.635 53.344,148.635C52.672,148.635 51.975,148.746 51.252,148.964C50.529,149.184 49.871,149.526 49.277,149.991L47.38,163.893ZM50.091,143.873L49.471,148.519C50.22,148.054 50.943,147.732 51.64,147.551C52.337,147.371 53.059,147.28 53.808,147.28C55.796,147.28 57.396,148.009 58.61,149.468C59.823,150.926 60.43,152.843 60.43,155.218C60.43,158.369 59.468,160.867 57.545,162.711C55.622,164.558 53.02,165.481 49.742,165.481C49.38,165.481 48.968,165.461 48.503,165.422C48.038,165.383 47.586,165.338 47.147,165.287L46.024,173.652L44.359,173.652L47.496,150.959C47.186,151.217 46.857,151.553 46.509,151.965C46.16,152.378 45.831,152.779 45.521,153.167L44.747,154.211C44.514,154.521 44.385,154.676 44.359,154.676C44.23,154.676 44.166,154.599 44.166,154.444C44.166,154.109 44.501,153.418 45.173,152.373C45.844,151.327 46.669,150.377 47.651,149.526L48.464,143.873L50.091,143.873Z" style="fill:rgb(3,4,4);fill-rule:nonzero;"/>
        <path d="M75.571,154.483C75.571,152.702 75.19,151.294 74.429,150.261C73.667,149.229 72.576,148.712 71.157,148.712C69.84,148.712 68.652,149.216 67.594,150.223C66.535,151.23 65.813,152.65 65.426,154.483L75.571,154.483ZM77.159,155.76L65.155,155.76C65.128,155.993 65.109,156.219 65.097,156.438C65.083,156.658 65.077,156.936 65.077,157.271C65.077,159.465 65.586,161.15 66.607,162.325C67.626,163.5 68.962,164.086 70.615,164.086C71.518,164.086 72.402,163.925 73.268,163.602C74.132,163.28 75.055,162.745 76.036,161.996L75.843,163.738C75.016,164.333 74.171,164.778 73.306,165.074C72.441,165.371 71.505,165.519 70.499,165.519C68.278,165.519 66.535,164.771 65.271,163.273C64.005,161.776 63.373,159.762 63.373,157.232C63.373,154.521 64.128,152.185 65.639,150.223C67.149,148.261 69.014,147.28 71.234,147.28C73.016,147.28 74.461,147.932 75.571,149.236C76.681,150.54 77.237,152.444 77.237,154.948C77.237,155.361 77.21,155.631 77.159,155.76Z" style="fill:rgb(3,4,4);fill-rule:nonzero;"/>
        <path d="M80.179,161.957L82.348,161.957L81.999,164.628C81.792,166.152 81.405,167.326 80.837,168.153C80.27,168.978 79.56,169.534 78.707,169.818L78.824,168.811C79.34,168.502 79.74,168.037 80.024,167.417C80.308,166.797 80.514,166.023 80.644,165.093L79.753,165.093L80.179,161.957Z" style="fill:rgb(3,4,4);fill-rule:nonzero;"/>
        <path d="M103.414,138.683L99.619,166.255C99.206,169.146 98.477,171.16 97.431,172.296C96.385,173.432 94.946,174 93.113,174C92.416,174 91.745,173.922 91.099,173.768L90.673,171.986C91.086,172.089 91.448,172.167 91.758,172.218C92.067,172.27 92.442,172.296 92.88,172.296C94.301,172.296 95.392,171.864 96.153,170.999C96.914,170.133 97.45,168.54 97.76,166.216L101.556,138.683L103.414,138.683Z" style="fill:rgb(3,4,4);fill-rule:nonzero;"/>
        <path d="M116.212,161.395C117.387,159.627 117.975,157.362 117.975,154.599C117.975,152.766 117.561,151.334 116.735,150.3C115.909,149.268 114.838,148.752 113.521,148.752C111.585,148.752 110.042,149.701 108.893,151.598C107.745,153.496 107.17,155.748 107.17,158.355C107.17,160.059 107.57,161.434 108.371,162.479C109.17,163.525 110.229,164.047 111.546,164.047C113.482,164.047 115.038,163.164 116.212,161.395ZM117.432,162.461C115.935,164.5 113.96,165.519 111.507,165.519C109.648,165.519 108.177,164.836 107.093,163.467C106.008,162.099 105.466,160.356 105.466,158.239C105.466,154.935 106.222,152.282 107.732,150.281C109.242,148.281 111.223,147.28 113.676,147.28C115.483,147.28 116.935,147.952 118.033,149.294C119.129,150.636 119.678,152.43 119.678,154.676C119.678,157.827 118.929,160.42 117.432,162.461Z" style="fill:rgb(3,4,4);fill-rule:nonzero;"/>
        <path d="M124.015,147.706L126.726,162.461L134.122,147.706L135.865,147.706L122.776,174L120.955,174L125.564,164.861L122.311,147.706L124.015,147.706Z" style="fill:rgb(3,4,4);fill-rule:nonzero;"/>
        <path d="M156.175,163.137C157.143,162.609 158.001,161.879 158.75,160.95L160.377,148.945C160.041,148.894 159.692,148.848 159.331,148.809C158.97,148.771 158.569,148.752 158.131,148.752C155.317,148.752 153.077,149.636 151.412,151.404C149.747,153.172 148.914,155.438 148.914,158.201C148.914,159.982 149.308,161.382 150.096,162.402C150.883,163.422 151.935,163.931 153.251,163.931C154.232,163.931 155.207,163.668 156.175,163.137ZM162.197,147.745L159.873,165.093L158.208,165.093L158.518,162.692C156.788,164.5 154.903,165.403 152.864,165.403C151.186,165.403 149.824,164.745 148.779,163.428C147.733,162.112 147.21,160.395 147.21,158.278C147.21,155 148.204,152.347 150.192,150.32C152.18,148.294 154.865,147.28 158.247,147.28C158.996,147.28 159.712,147.326 160.396,147.416C161.08,147.506 161.68,147.616 162.197,147.745Z" style="fill:rgb(3,4,4);fill-rule:nonzero;"/>
        <path d="M178.984,153.069C178.945,153.47 178.899,153.85 178.848,154.211L177.299,165.093L175.634,165.093L177.183,154.211C177.234,153.85 177.28,153.457 177.318,153.031C177.357,152.605 177.376,152.314 177.376,152.16C177.376,151.024 177.125,150.178 176.622,149.623C176.118,149.068 175.414,148.791 174.511,148.791C172.445,148.791 170.238,150.133 167.889,152.818L166.185,165.093L164.559,165.093L166.921,147.706L168.586,147.706L168.122,151.037C170.367,148.61 172.639,147.396 174.937,147.396C176.253,147.396 177.267,147.809 177.977,148.635C178.686,149.461 179.041,150.624 179.041,152.121C179.041,152.353 179.022,152.669 178.984,153.069Z" style="fill:rgb(3,4,4);fill-rule:nonzero;"/>
        <path d="M192.149,164.009C192.627,163.958 193.098,163.868 193.563,163.738L195.615,148.907C195.228,148.855 194.808,148.809 194.357,148.771C193.905,148.732 193.447,148.712 192.982,148.712C190.219,148.712 188.031,149.559 186.418,151.25C184.805,152.94 183.998,155.025 183.998,157.503C183.998,159.594 184.604,161.214 185.818,162.363C187.031,163.512 188.709,164.086 190.852,164.086C191.24,164.086 191.671,164.061 192.149,164.009ZM198.675,138.683L195.035,165.016L193.718,165.249C193.201,165.351 192.743,165.422 192.343,165.461C191.943,165.5 191.407,165.519 190.736,165.519C187.999,165.519 185.901,164.803 184.443,163.37C182.984,161.937 182.255,160.007 182.255,157.581C182.255,154.586 183.262,152.127 185.276,150.204C187.289,148.281 189.807,147.319 192.827,147.319C193.163,147.319 193.627,147.332 194.221,147.357C194.815,147.383 195.344,147.422 195.809,147.473L197.01,138.683L198.675,138.683Z" style="fill:rgb(3,4,4);fill-rule:nonzero;"/>
        <path d="M216.643,138.683L212.848,166.255C212.435,169.146 211.706,171.16 210.66,172.296C209.614,173.432 208.175,174 206.342,174C205.645,174 204.974,173.922 204.328,173.768L203.902,171.986C204.315,172.089 204.677,172.167 204.987,172.218C205.296,172.27 205.671,172.296 206.109,172.296C207.53,172.296 208.621,171.864 209.382,170.999C210.143,170.133 210.679,168.54 210.989,166.216L214.784,138.683L216.643,138.683Z" style="fill:rgb(3,4,4);fill-rule:nonzero;"/>
        <path d="M222.373,147.706L220.825,159.052C220.772,159.492 220.734,159.827 220.708,160.059C220.683,160.292 220.67,160.511 220.67,160.717C220.67,161.854 220.921,162.692 221.425,163.235C221.928,163.777 222.631,164.047 223.536,164.047C224.49,164.047 225.497,163.745 226.556,163.137C227.614,162.532 228.802,161.505 230.119,160.059L231.784,147.706L233.449,147.706L231.087,165.093L229.421,165.093L229.848,161.801C228.711,163.015 227.595,163.919 226.498,164.512C225.4,165.106 224.245,165.403 223.032,165.403C221.689,165.403 220.676,164.984 219.992,164.144C219.308,163.306 218.966,162.203 218.966,160.834C218.966,160.627 218.985,160.356 219.024,160.02C219.063,159.685 219.107,159.336 219.16,158.975L220.708,147.706L222.373,147.706Z" style="fill:rgb(3,4,4);fill-rule:nonzero;"/>
        <path d="M247.08,148.907L246.886,150.572C245.904,149.901 245.04,149.436 244.291,149.177C243.542,148.919 242.755,148.791 241.929,148.791C240.896,148.791 240.064,149.048 239.432,149.565C238.798,150.082 238.483,150.726 238.483,151.501C238.483,152.611 239.321,153.696 241,154.753C242.678,155.813 243.956,156.806 244.833,157.736C245.711,158.665 246.15,159.762 246.15,161.027C246.15,162.421 245.666,163.519 244.698,164.319C243.73,165.119 242.484,165.519 240.961,165.519L240.884,165.519C239.902,165.519 238.928,165.338 237.96,164.977C236.992,164.616 236.095,164.1 235.268,163.428L235.656,161.801C237.411,163.299 239.18,164.047 240.961,164.047C242.123,164.047 243,163.752 243.594,163.157C244.188,162.563 244.485,161.854 244.485,161.027C244.485,159.582 243.201,158.085 240.632,156.535C238.063,154.986 236.779,153.335 236.779,151.579C236.779,150.339 237.263,149.32 238.231,148.519C239.199,147.719 240.457,147.319 242.007,147.319C243.736,147.319 245.427,147.848 247.08,148.907Z" style="fill:rgb(3,4,4);fill-rule:nonzero;"/>
        <path d="M255.173,143.873L254.515,147.706L259.2,147.706L258.928,149.139L254.244,149.139L252.733,158.201C252.681,158.614 252.617,159.124 252.539,159.73C252.462,160.336 252.423,160.847 252.423,161.259C252.423,162.241 252.649,162.951 253.101,163.389C253.552,163.829 254.153,164.047 254.902,164.047C255.495,164.047 256.069,163.938 256.625,163.718C257.18,163.5 257.69,163.235 258.155,162.924L257.961,164.551C257.393,164.887 256.851,165.132 256.334,165.287C255.818,165.442 255.263,165.519 254.669,165.519C253.585,165.519 252.662,165.196 251.9,164.551C251.139,163.906 250.758,162.874 250.758,161.454C250.758,161.092 250.784,160.64 250.835,160.098C250.887,159.555 250.977,158.923 251.107,158.201L252.578,149.139L249.248,149.139L249.48,147.706L252.85,147.706L253.508,143.873L255.173,143.873Z" style="fill:rgb(3,4,4);fill-rule:nonzero;"/>
        <path d="M265.202,140.193L264.815,143.175L263.111,143.175L263.498,140.193L265.202,140.193ZM264.157,147.706L261.794,165.093L260.129,165.093L262.53,147.706L264.157,147.706Z" style="fill:rgb(3,4,4);fill-rule:nonzero;"/>
        <path d="M280.305,147.668L280.072,149.177C279.556,149.048 279.085,148.952 278.659,148.887C278.233,148.823 277.761,148.791 277.245,148.791C274.792,148.791 272.759,149.669 271.146,151.423C269.532,153.179 268.726,155.296 268.726,157.774C268.726,159.608 269.223,161.105 270.217,162.266C271.21,163.428 272.585,164.009 274.341,164.009C275.038,164.009 275.78,163.906 276.568,163.699C277.355,163.493 278.162,163.131 278.988,162.615L278.755,164.396C277.258,165.145 275.67,165.519 273.993,165.519C271.901,165.519 270.217,164.796 268.939,163.351C267.661,161.905 267.022,160.007 267.022,157.658C267.022,154.819 267.977,152.378 269.888,150.339C271.798,148.3 274.289,147.28 277.361,147.28C277.826,147.28 278.323,147.319 278.852,147.396C279.381,147.473 279.865,147.564 280.305,147.668Z" style="fill:rgb(3,4,4);fill-rule:nonzero;"/>
        <path d="M293.975,154.483C293.975,152.702 293.594,151.294 292.832,150.261C292.07,149.229 290.978,148.712 289.56,148.712C288.242,148.712 287.055,149.216 285.996,150.223C284.937,151.23 284.216,152.65 283.828,154.483L293.975,154.483ZM295.562,155.76L283.557,155.76C283.531,155.993 283.512,156.219 283.499,156.438C283.485,156.658 283.479,156.936 283.479,157.271C283.479,159.465 283.989,161.15 285.01,162.325C286.029,163.5 287.365,164.086 289.018,164.086C289.922,164.086 290.805,163.925 291.67,163.602C292.535,163.28 293.457,162.745 294.439,161.996L294.246,163.738C293.418,164.333 292.574,164.778 291.709,165.074C290.844,165.371 289.908,165.519 288.902,165.519C286.682,165.519 284.937,164.771 283.673,163.273C282.408,161.776 281.775,159.762 281.775,157.232C281.775,154.521 282.531,152.185 284.041,150.223C285.551,148.261 287.416,147.28 289.637,147.28C291.418,147.28 292.863,147.932 293.975,149.236C295.084,150.54 295.639,152.444 295.639,154.948C295.639,155.361 295.613,155.631 295.562,155.76Z" style="fill:rgb(3,4,4);fill-rule:nonzero;"/>
        <path d="M323.56,138.838L323.328,140.387C322.733,140.077 322.121,139.858 321.488,139.729C320.855,139.6 320.242,139.535 319.648,139.535C316.551,139.535 314.756,141.342 314.267,144.957L313.84,147.706L318.1,147.706L317.867,149.139L313.646,149.139L310.51,172.645L308.845,172.645L311.981,149.139L308.768,149.139L309,147.706L312.214,147.706L312.64,144.84C312.949,142.646 313.685,140.961 314.847,139.787C316.009,138.612 317.609,138.025 319.648,138.025C321.017,138.025 322.321,138.295 323.56,138.838Z" style="fill:rgb(3,4,4);fill-rule:nonzero;"/>
        <path d="M328.536,161.395C329.71,159.627 330.298,157.362 330.298,154.599C330.298,152.766 329.885,151.334 329.059,150.3C328.232,149.268 327.161,148.752 325.845,148.752C323.908,148.752 322.365,149.701 321.217,151.598C320.067,153.496 319.493,155.748 319.493,158.355C319.493,160.059 319.893,161.434 320.694,162.479C321.494,163.525 322.553,164.047 323.869,164.047C325.806,164.047 327.36,163.164 328.536,161.395ZM329.756,162.461C328.258,164.5 326.283,165.519 323.831,165.519C321.972,165.519 320.5,164.836 319.416,163.467C318.332,162.099 317.79,160.356 317.79,158.239C317.79,154.935 318.545,152.282 320.055,150.281C321.565,148.281 323.546,147.28 325.999,147.28C327.806,147.28 329.258,147.952 330.355,149.294C331.453,150.636 332.002,152.43 332.002,154.676C332.002,157.827 331.253,160.42 329.756,162.461Z" style="fill:rgb(3,4,4);fill-rule:nonzero;"/>
        <path d="M345.865,147.822L345.284,149.487C344.793,149.229 344.303,149.1 343.812,149.1C343.063,149.1 342.289,149.397 341.489,149.991C340.688,150.585 339.94,151.334 339.243,152.237L337.849,154.095L336.339,165.093L334.674,165.093L337.074,147.706L338.739,147.706L338.12,152.004C339.436,150.275 340.546,149.075 341.45,148.403C342.353,147.732 343.257,147.396 344.161,147.396C344.471,147.396 344.774,147.435 345.071,147.512C345.367,147.589 345.633,147.693 345.865,147.822Z" style="fill:rgb(3,4,4);fill-rule:nonzero;"/>
        <path d="M360.58,154.251L369.216,154.251L366.39,141.045L360.58,154.251ZM367.629,138.412L373.243,165.093L371.501,165.093L369.487,155.76L359.922,155.76L355.817,165.093L353.959,165.093L365.886,138.412L367.629,138.412Z" style="fill:rgb(3,4,4);fill-rule:nonzero;"/>
        <path d="M381.801,138.683L378.354,163.428L389.739,163.428L389.546,165.093L376.303,165.093L379.942,138.683L381.801,138.683Z" style="fill:rgb(3,4,4);fill-rule:nonzero;"/>
        <path d="M398.259,138.683L394.812,163.428L406.197,163.428L406.004,165.093L392.761,165.093L396.4,138.683L398.259,138.683Z" style="fill:rgb(3,4,4);fill-rule:nonzero;"/>
        <path d="M439.268,138.567L438.959,140.232C438.132,140.129 437.616,140.071 437.41,140.058C437.203,140.045 436.893,140.039 436.48,140.039C432.221,140.039 428.651,141.446 425.773,144.259C422.894,147.074 421.455,150.443 421.455,154.367C421.455,157.026 422.217,159.252 423.74,161.046C425.263,162.841 427.226,163.738 429.626,163.738C432.078,163.738 434.699,162.835 437.487,161.027L437.216,163.119C436.002,163.841 434.725,164.41 433.383,164.822C432.04,165.235 430.762,165.442 429.549,165.442C426.58,165.442 424.166,164.383 422.308,162.266C420.448,160.15 419.518,157.542 419.518,154.444C419.518,149.901 421.178,146.08 424.495,142.982C427.812,139.883 431.795,138.335 436.441,138.335C437.423,138.335 438.364,138.412 439.268,138.567Z" style="fill:rgb(3,4,4);fill-rule:nonzero;"/>
        <path d="M445.426,138.683L443.722,150.959C445.993,148.506 448.316,147.28 450.692,147.28C451.828,147.28 452.769,147.693 453.518,148.519C454.268,149.345 454.642,150.468 454.642,151.888C454.642,152.224 454.616,152.63 454.564,153.108C454.513,153.586 454.461,153.966 454.409,154.251L452.899,165.093L451.234,165.093L452.783,153.941C452.835,153.657 452.88,153.315 452.919,152.915C452.957,152.514 452.977,152.211 452.977,152.004C452.977,150.842 452.699,149.998 452.144,149.468C451.589,148.939 450.898,148.674 450.072,148.674C449.091,148.674 448.091,148.978 447.071,149.585C446.051,150.191 444.857,151.243 443.489,152.74L441.785,165.093L440.12,165.093L443.76,138.683L445.426,138.683Z" style="fill:rgb(3,4,4);fill-rule:nonzero;"/>
        <path d="M462.774,140.193L462.387,143.175L460.683,143.175L461.07,140.193L462.774,140.193ZM461.728,147.706L459.366,165.093L457.701,165.093L460.102,147.706L461.728,147.706Z" style="fill:rgb(3,4,4);fill-rule:nonzero;"/>
        <path d="M469.629,138.683L465.988,165.093L464.362,165.093L467.963,138.683L469.629,138.683Z" style="fill:rgb(3,4,4);fill-rule:nonzero;"/>
        <path d="M481.227,164.009C481.704,163.958 482.176,163.868 482.641,163.738L484.692,148.907C484.306,148.855 483.886,148.809 483.434,148.771C482.982,148.732 482.524,148.712 482.06,148.712C479.297,148.712 477.108,149.559 475.495,151.25C473.882,152.94 473.075,155.025 473.075,157.503C473.075,159.594 473.682,161.214 474.895,162.363C476.108,163.512 477.786,164.086 479.93,164.086C480.316,164.086 480.749,164.061 481.227,164.009ZM487.752,138.683L484.111,165.016L482.795,165.249C482.278,165.351 481.82,165.422 481.42,165.461C481.019,165.5 480.484,165.519 479.813,165.519C477.076,165.519 474.978,164.803 473.52,163.37C472.061,161.937 471.333,160.007 471.333,157.581C471.333,154.586 472.34,152.127 474.353,150.204C476.367,148.281 478.884,147.319 481.904,147.319C482.239,147.319 482.704,147.332 483.299,147.357C483.892,147.383 484.422,147.422 484.886,147.473L486.087,138.683L487.752,138.683Z" style="fill:rgb(3,4,4);fill-rule:nonzero;"/>
        <path d="M500.105,147.822L499.524,149.487C499.033,149.229 498.543,149.1 498.053,149.1C497.304,149.1 496.529,149.397 495.729,149.991C494.929,150.585 494.181,151.334 493.483,152.237L492.089,154.095L490.579,165.093L488.914,165.093L491.314,147.706L492.979,147.706L492.36,152.004C493.677,150.275 494.786,149.075 495.69,148.403C496.594,147.732 497.497,147.396 498.401,147.396C498.711,147.396 499.015,147.435 499.311,147.512C499.607,147.589 499.873,147.693 500.105,147.822Z" style="fill:rgb(3,4,4);fill-rule:nonzero;"/>
        <path d="M511.451,154.483C511.451,152.702 511.07,151.294 510.309,150.261C509.547,149.229 508.456,148.712 507.037,148.712C505.72,148.712 504.532,149.216 503.474,150.223C502.415,151.23 501.692,152.65 501.306,154.483L511.451,154.483ZM513.039,155.76L501.034,155.76C501.009,155.993 500.989,156.219 500.977,156.438C500.963,156.658 500.957,156.936 500.957,157.271C500.957,159.465 501.467,161.15 502.486,162.325C503.506,163.5 504.842,164.086 506.495,164.086C507.398,164.086 508.282,163.925 509.147,163.602C510.012,163.28 510.935,162.745 511.916,161.996L511.723,163.738C510.895,164.333 510.051,164.778 509.185,165.074C508.32,165.371 507.386,165.519 506.379,165.519C504.158,165.519 502.415,164.771 501.15,163.273C499.886,161.776 499.253,159.762 499.253,157.232C499.253,154.521 500.008,152.185 501.518,150.223C503.028,148.261 504.893,147.28 507.114,147.28C508.895,147.28 510.341,147.932 511.451,149.236C512.56,150.54 513.116,152.444 513.116,154.948C513.116,155.361 513.091,155.631 513.039,155.76Z" style="fill:rgb(3,4,4);fill-rule:nonzero;"/>
        <path d="M530.019,153.069C529.98,153.47 529.935,153.85 529.884,154.211L528.335,165.093L526.67,165.093L528.219,154.211C528.27,153.85 528.315,153.457 528.354,153.031C528.393,152.605 528.412,152.314 528.412,152.16C528.412,151.024 528.16,150.178 527.657,149.623C527.153,149.068 526.45,148.791 525.547,148.791C523.479,148.791 521.273,150.133 518.925,152.818L517.221,165.093L515.594,165.093L517.956,147.706L519.622,147.706L519.156,151.037C521.403,148.61 523.675,147.396 525.973,147.396C527.289,147.396 528.302,147.809 529.013,148.635C529.723,149.461 530.077,150.624 530.077,152.121C530.077,152.353 530.058,152.669 530.019,153.069Z" style="fill:rgb(3,4,4);fill-rule:nonzero;"/>
        <path d="M546.462,8.217C546.842,8.217 547.149,8.138 547.384,7.978C547.619,7.818 547.736,7.573 547.736,7.243C547.736,6.623 547.326,6.313 546.507,6.313L545.622,6.313L545.622,8.217L546.462,8.217ZM544.422,5.488L546.972,5.488C547.632,5.488 548.142,5.63 548.502,5.916C548.861,6.2 549.042,6.597 549.042,7.108C549.042,7.528 548.892,7.882 548.592,8.172C548.292,8.462 547.896,8.643 547.406,8.712C547.656,8.793 547.859,8.908 548.014,9.058C548.169,9.208 548.331,9.413 548.502,9.672L549.642,11.413L548.247,11.413L547.361,9.927C547.111,9.518 546.909,9.268 546.754,9.177C546.599,9.087 546.382,9.043 546.102,9.043L545.622,9.043L545.622,11.413L544.422,11.413L544.422,5.488ZM550.076,11.818C550.996,10.898 551.457,9.783 551.457,8.472C551.457,7.183 550.994,6.076 550.069,5.15C549.143,4.225 548.042,3.762 546.762,3.762C545.462,3.762 544.347,4.228 543.417,5.158C542.486,6.087 542.021,7.198 542.021,8.488C542.021,9.788 542.489,10.898 543.424,11.818C544.359,12.738 545.472,13.198 546.762,13.198C548.052,13.198 549.156,12.738 550.076,11.818ZM550.489,4.722C551.544,5.763 552.071,7.018 552.071,8.488C552.071,9.938 551.552,11.185 550.512,12.23C549.472,13.275 548.222,13.797 546.762,13.797C545.281,13.797 544.018,13.273 542.974,12.222C541.929,11.172 541.406,9.927 541.406,8.488C541.406,7.038 541.929,5.788 542.974,4.738C544.018,3.688 545.276,3.163 546.747,3.163C548.186,3.163 549.434,3.683 550.489,4.722Z" style="fill:rgb(3,4,4);fill-rule:nonzero;"/>
    </g>
</svg>
